<svg id="visual" viewBox="0 0 3840 2160" width="3840" height="2160" xmlns="http://www.w3.org/2000/svg" xmlns:xlink="http://www.w3.org/1999/xlink" version="1.1"><rect x="0" y="0" width="3840" height="2160" fill="#209cff"></rect><defs><linearGradient id="grad1_0" x1="43.8%" y1="0%" x2="100%" y2="100%"><stop offset="14.444444444444446%" stop-color="#68e0cf" stop-opacity="1"></stop><stop offset="85.55555555555554%" stop-color="#68e0cf" stop-opacity="1"></stop></linearGradient></defs><defs><linearGradient id="grad1_1" x1="43.8%" y1="0%" x2="100%" y2="100%"><stop offset="14.444444444444446%" stop-color="#68e0cf" stop-opacity="1"></stop><stop offset="85.55555555555554%" stop-color="#00d4e0" stop-opacity="1"></stop></linearGradient></defs><defs><linearGradient id="grad1_2" x1="43.8%" y1="0%" x2="100%" y2="100%"><stop offset="14.444444444444446%" stop-color="#00c5f2" stop-opacity="1"></stop><stop offset="85.55555555555554%" stop-color="#00d4e0" stop-opacity="1"></stop></linearGradient></defs><defs><linearGradient id="grad1_3" x1="43.8%" y1="0%" x2="100%" y2="100%"><stop offset="14.444444444444446%" stop-color="#00c5f2" stop-opacity="1"></stop><stop offset="85.55555555555554%" stop-color="#00b2fe" stop-opacity="1"></stop></linearGradient></defs><defs><linearGradient id="grad1_4" x1="43.8%" y1="0%" x2="100%" y2="100%"><stop offset="14.444444444444446%" stop-color="#209cff" stop-opacity="1"></stop><stop offset="85.55555555555554%" stop-color="#00b2fe" stop-opacity="1"></stop></linearGradient></defs><defs><linearGradient id="grad2_0" x1="0%" y1="0%" x2="56.3%" y2="100%"><stop offset="14.444444444444446%" stop-color="#68e0cf" stop-opacity="1"></stop><stop offset="85.55555555555554%" stop-color="#68e0cf" stop-opacity="1"></stop></linearGradient></defs><defs><linearGradient id="grad2_1" x1="0%" y1="0%" x2="56.3%" y2="100%"><stop offset="14.444444444444446%" stop-color="#00d4e0" stop-opacity="1"></stop><stop offset="85.55555555555554%" stop-color="#68e0cf" stop-opacity="1"></stop></linearGradient></defs><defs><linearGradient id="grad2_2" x1="0%" y1="0%" x2="56.3%" y2="100%"><stop offset="14.444444444444446%" stop-color="#00d4e0" stop-opacity="1"></stop><stop offset="85.55555555555554%" stop-color="#00c5f2" stop-opacity="1"></stop></linearGradient></defs><defs><linearGradient id="grad2_3" x1="0%" y1="0%" x2="56.3%" y2="100%"><stop offset="14.444444444444446%" stop-color="#00b2fe" stop-opacity="1"></stop><stop offset="85.55555555555554%" stop-color="#00c5f2" stop-opacity="1"></stop></linearGradient></defs><defs><linearGradient id="grad2_4" x1="0%" y1="0%" x2="56.3%" y2="100%"><stop offset="14.444444444444446%" stop-color="#00b2fe" stop-opacity="1"></stop><stop offset="85.55555555555554%" stop-color="#209cff" stop-opacity="1"></stop></linearGradient></defs><g transform="translate(3840, 0)"><path d="M0 1944C-241.1 1837.6 -482.1 1731.2 -660.1 1593.7C-838.2 1456.2 -953.1 1287.6 -1156.1 1156.1C-1359.1 1024.7 -1650 930.4 -1796 743.9C-1942 557.4 -1943 278.7 -1944 0L0 0Z" fill="#00a8ff"></path><path d="M0 1555.2C-192.8 1470.1 -385.7 1385 -528.1 1275C-670.5 1164.9 -762.5 1030 -924.9 924.9C-1087.3 819.7 -1320 744.3 -1436.8 595.1C-1553.6 446 -1554.4 223 -1555.2 0L0 0Z" fill="#00bcf9"></path><path d="M0 1166.4C-144.6 1102.6 -289.3 1038.7 -396.1 956.2C-502.9 873.7 -571.9 772.5 -693.7 693.7C-815.5 614.8 -990 558.3 -1077.6 446.4C-1165.2 334.5 -1165.8 167.2 -1166.4 0L0 0Z" fill="#00cde9"></path><path d="M0 777.6C-96.4 735 -192.8 692.5 -264.1 637.5C-335.3 582.5 -381.3 515 -462.4 462.4C-543.6 409.9 -660 372.2 -718.4 297.6C-776.8 223 -777.2 111.5 -777.6 0L0 0Z" fill="#44dad7"></path><path d="M0 388.8C-48.2 367.5 -96.4 346.2 -132 318.7C-167.6 291.2 -190.6 257.5 -231.2 231.2C-271.8 204.9 -330 186.1 -359.2 148.8C-388.4 111.5 -388.6 55.7 -388.8 0L0 0Z" fill="#68e0cf"></path></g><g transform="translate(0, 2160)"><path d="M0 -1944C226.3 -1862.8 452.5 -1781.6 706.4 -1705.5C960.3 -1629.4 1241.9 -1558.3 1374.6 -1374.6C1507.3 -1190.9 1491.3 -894.6 1561.4 -646.7C1631.5 -398.9 1787.7 -199.4 1944 0L0 0Z" fill="#00a8ff"></path><path d="M0 -1555.2C181 -1490.2 362 -1425.3 565.1 -1364.4C768.3 -1303.5 993.5 -1246.6 1099.7 -1099.7C1205.9 -952.7 1193 -715.7 1249.1 -517.4C1305.2 -319.1 1430.2 -159.5 1555.2 0L0 0Z" fill="#00bcf9"></path><path d="M0 -1166.4C135.8 -1117.7 271.5 -1069 423.9 -1023.3C576.2 -977.6 745.1 -935 824.8 -824.8C904.4 -714.6 894.8 -536.8 936.8 -388C978.9 -239.3 1072.6 -119.7 1166.4 0L0 0Z" fill="#00cde9"></path><path d="M0 -777.6C90.5 -745.1 181 -712.6 282.6 -682.2C384.1 -651.7 496.8 -623.3 549.8 -549.8C602.9 -476.4 596.5 -357.8 624.5 -258.7C652.6 -159.5 715.1 -79.8 777.6 0L0 0Z" fill="#44dad7"></path><path d="M0 -388.8C45.3 -372.6 90.5 -356.3 141.3 -341.1C192.1 -325.9 248.4 -311.7 274.9 -274.9C301.5 -238.2 298.3 -178.9 312.3 -129.3C326.3 -79.8 357.5 -39.9 388.8 0L0 0Z" fill="#68e0cf"></path></g></svg>